<svg width="180" height="180" viewBox="0 0 180 180" fill="none" xmlns="http://www.w3.org/2000/svg">
<rect width="180" height="180" fill="#252323"/>
<path d="M77 146.2C73.1333 146.2 70.2 144.667 68.2 141.6C67.2667 140.133 66.6 138.4 66.2 136.4C65.8 134.4 65.6 132.333 65.6 130.2C65.6 128.067 65.7333 125.933 66 123.8C66.2667 121.533 66.6 119.333 67 117.2C67.6667 113.733 68.4 110.6 69.2 107.8C70.1333 104.867 71.0667 102.067 72 99.4V99.2C70.9333 101.2 69.6 103.4 68 105.8C66.4 108.067 65.2667 109.733 64.6 110.8C63.6667 112.267 62.9333 113 62.4 113C61.8667 113 61.6 112.4 61.6 111.2C61.6 108.533 62.4 105.6 64 102.4C65.0667 100.267 66.5333 97.5333 68.4 94.2C70.2667 90.7333 72.2 87 74.2 83C76.2 79 77.9333 75.1333 79.4 71.4H66C65.3333 71.4 65.2 70.8667 65.6 69.8C66 68.7333 66.6 67.7333 67.4 66.8C68.2 65.7333 68.8 65.2 69.2 65.2H84.4C85.8667 61.7333 87.5333 58 89.4 54C91.4 50 93.6 46.2667 96 42.8C98.5333 39.2 101.267 36.2667 104.2 34C107.133 31.7333 110.267 30.6 113.6 30.6C115.067 30.6 116.867 30.6 119 30.6C121.267 30.6 122.667 30.5333 123.2 30.4C120.4 32.2667 117.133 36 113.4 41.6C109.667 47.0667 105.6 54.9333 101.2 65.2H121.4C121.8 65.2 121.667 65.7333 121 66.8C120.333 67.7333 119.467 68.7333 118.4 69.8C117.467 70.8667 116.533 71.4 115.6 71.4H98.4C96.6667 75.8 94.7333 80.6 92.6 85.8C90.6 91 88.7333 96.1333 87 101.2C85.4 106.133 84.2 110.667 83.4 114.8C82.8667 117.333 82.6 119.667 82.6 121.8C82.6 126.867 84.2 129.4 87.4 129.4C89.5333 129.4 92.0667 128.333 95 126.2C97.9333 124.067 100.867 121.133 103.8 117.4C106.467 113.933 109 110.2 111.4 106.2C113.933 102.2 116.067 98.5333 117.8 95.2C118.333 94.2667 118.8 93.8 119.2 93.8C120 93.8 120.4 94.8667 120.4 97C120.4 98.0667 120.2 99.3333 119.8 100.8C119.533 102.133 119 103.467 118.2 104.8C116.333 108 114.133 111.533 111.6 115.4C109.067 119.133 106.467 122.867 103.8 126.6C101.933 129 99.4667 131.733 96.4 134.8C93.4667 137.867 90.2667 140.533 86.8 142.8C83.4667 145.067 80.2 146.2 77 146.2Z" fill="#F2F2F2"/>
<ellipse cx="106" cy="144.515" rx="16" ry="15.5152" fill="#72E87D"/>
</svg>
